<svg xmlns="http://www.w3.org/2000/svg" viewBox="0 0 17.04 11.87"><title>tee</title><g id="Layer_2" data-name="Layer 2"><g id="Layer_1-2" data-name="Layer 1"><path d="M11.86,10.51c0,.68-1.63,1.22-3.63,1.21s-3.62-.57-3.61-1.25S6.25,9.25,8.25,9.26s3.62.57,3.61,1.25" fill="#fff"/><path d="M11.86,10.51h-.15a.49.49,0,0,1-.22.35,5.84,5.84,0,0,1-3.19.7H8.24a8.15,8.15,0,0,1-2.51-.37A2.46,2.46,0,0,1,5,10.83a.5.5,0,0,1-.23-.36A.49.49,0,0,1,5,10.12a5.83,5.83,0,0,1,3.19-.7h.06a8.15,8.15,0,0,1,2.51.37,2.47,2.47,0,0,1,.73.37.49.49,0,0,1,.23.36H12a.79.79,0,0,0-.34-.6,6.14,6.14,0,0,0-3.42-.8H8.19a8.3,8.3,0,0,0-2.57.36,2.67,2.67,0,0,0-.81.41.69.69,0,0,0,0,1.19,6.12,6.12,0,0,0,3.43.8h.06a8.31,8.31,0,0,0,2.57-.36,2.65,2.65,0,0,0,.81-.41.78.78,0,0,0,.34-.59h-.15" fill="#3e3935"/><line x1="13.08" y1="0.73" x2="1.74" y2="0.73" fill="#fff"/><polyline points="13.08 0.51 1.74 0.5 1.74 0.96 13.08 0.96" fill="#3e3935"/><path d="M3.46,8.7l0-.16-.22-.05.21.08.09-.07a1,1,0,0,1,.3,0h.36a2.6,2.6,0,0,1,.5,0l.13,0h0l0-.05-.05,0v0l0-.05-.05,0,0,.12h.23l-.23,0,0,.34.46,0,0-.34h0v0a.69.69,0,0,0-.11-.37.64.64,0,0,0-.42-.23,3.1,3.1,0,0,0-.6,0h0V8H3.88a1.43,1.43,0,0,0-.44.05.58.58,0,0,0-.37.35v0L3,8.6l.45.1" fill="#3e3935"/><path d="M11.95,9.18h0c0-.08,0-.33,0-.53V8.47l-.17,0,.13.1,0-.07-.17,0,.13.1h0l-.06,0,0,.06v0l-.06,0,0,.06a.44.44,0,0,1,.14,0,2.32,2.32,0,0,1,.36,0H13a.71.71,0,0,1,.32.1l.23-.4A1.19,1.19,0,0,0,13.07,8H12.4a2.48,2.48,0,0,0-.49,0,.59.59,0,0,0-.37.2h0l-.05.13a1.91,1.91,0,0,0,0,.25c0,.2,0,.47,0,.53h.46" fill="#3e3935"/><path d="M4.89,8c1.52-.92.69-2.21,2-2.88" fill="#fff"/><path d="M4.93,8.08A2.29,2.29,0,0,0,6,6.5a1.69,1.69,0,0,1,.85-1.3l-.07-.14a1.84,1.84,0,0,0-.93,1.39,2.14,2.14,0,0,1-1,1.49l.08.13" fill="#3e3935"/><path d="M4.64,10.36V9.16c0-.68,1.63-1.06,3.63-1.05s3.62.36,3.61,1.25v1.07c0-.68-1.61-1.21-3.61-1.22s-3.62.47-3.63,1.15" fill="#fff"/><path d="M4.64,10.36h.15V9.16c0-.1.06-.21.22-.32a6.43,6.43,0,0,1,3.17-.57h.08a9.36,9.36,0,0,1,2.51.29,2,2,0,0,1,.72.35.58.58,0,0,1,.23.45h0v1.07H12a.78.78,0,0,0-.34-.6,6.22,6.22,0,0,0-3.42-.78H8.2a8.82,8.82,0,0,0-2.56.33,2.64,2.64,0,0,0-.81.39.76.76,0,0,0-.34.58h.31A.46.46,0,0,1,5,10,6,6,0,0,1,8.2,9.36h.07a8.34,8.34,0,0,1,2.51.35,2.45,2.45,0,0,1,.73.36.48.48,0,0,1,.23.36H12V9.36h0a.89.89,0,0,0-.34-.68A6,6,0,0,0,8.27,8H8.18a10,10,0,0,0-2.55.28,2.57,2.57,0,0,0-.81.35.72.72,0,0,0-.34.57v1.2h.15" fill="#3e3935"/><path d="M15.34,8.75H14.06c-.8,0-1.47-1.8-1.5-4.15S12.9.26,13.7.24h1.47c-.76.14-1.3,2-1.27,4.28" fill="#fff"/><path d="M15.33,8.6H14.06v0h0a.61.61,0,0,1-.45-.26,6.65,6.65,0,0,1-.89-3.73c0-.09,0-.18,0-.28A12.15,12.15,0,0,1,13,1.5a2.74,2.74,0,0,1,.34-.83c.13-.19.25-.26.38-.26h1.47V.23l0-.15c-.48.1-.79.64-1,1.38a10.06,10.06,0,0,0-.37,2.86v.19H14V4.33a9.74,9.74,0,0,1,.35-2.77c.22-.72.54-1.14.8-1.17l0-.3H13.7a.79.79,0,0,0-.63.4,8,8,0,0,0-.67,3.85c0,.09,0,.19,0,.28a9.47,9.47,0,0,0,.47,3,3.06,3.06,0,0,0,.5.92.91.91,0,0,0,.68.37h1.28V8.6" fill="#3e3935"/><path d="M11.22,10.53c0,.32-1.27.57-2.84.56s-2.83-.27-2.83-.6,1.27-.57,2.84-.56,2.83.28,2.83.6" fill="#fff"/><path d="M11.22,10.53h-.15a.47.47,0,0,1-.21.13,7.65,7.65,0,0,1-2.4.29H8.38a10.32,10.32,0,0,1-2-.18,2.58,2.58,0,0,1-.57-.17l-.12-.08v0h0a.46.46,0,0,1,.21-.13,7.6,7.6,0,0,1,2.4-.3h.08a10.42,10.42,0,0,1,2,.18,2.58,2.58,0,0,1,.57.18l.12.08v0h.3a.32.32,0,0,0-.1-.22,2.16,2.16,0,0,0-1.06-.38,11.4,11.4,0,0,0-1.83-.14H8.31a10.37,10.37,0,0,0-2,.17,2.75,2.75,0,0,0-.63.19l-.2.14a.32.32,0,0,0-.1.22.32.32,0,0,0,.1.23,2.16,2.16,0,0,0,1.05.38,11.27,11.27,0,0,0,1.83.14h.08a10.37,10.37,0,0,0,2-.17,2.76,2.76,0,0,0,.63-.19l.2-.14a.32.32,0,0,0,.1-.22h-.15" fill="#3e3935"/><path d="M11.05,10.33a6.2,6.2,0,0,1-2.67.38,6.3,6.3,0,0,1-2.66-.4" fill="#fff"/><path d="M11,10.2a2.46,2.46,0,0,1-.89.25,11.61,11.61,0,0,1-1.6.1H8.38a11.92,11.92,0,0,1-1.65-.11,2.6,2.6,0,0,1-.92-.26l-.17.25a2.82,2.82,0,0,0,1,.31,12.34,12.34,0,0,0,1.69.11h.09a11.86,11.86,0,0,0,1.65-.1,2.65,2.65,0,0,0,1-.3L11,10.2" fill="#3e3935"/><path d="M10.39,10.12a9.24,9.24,0,0,1-2,.15,9.66,9.66,0,0,1-2-.18" fill="#fff"/><path d="M10.35,10a8.64,8.64,0,0,1-1.83.14H8.38a9.55,9.55,0,0,1-2-.18l-.07.3a9.76,9.76,0,0,0,2,.19h.14a8.94,8.94,0,0,0,1.89-.15l-.07-.3" fill="#3e3935"/><path d="M3.14.72H3.5C3.34.27,3.24.23,3,.23c-.54,0-1.42,1.75-1.4,4s.94,4.52,1.49,4.52c.14,0,.14-.27.24-.5-.08.12,0,0-.08,0-.58.13-1.19-2.15-1.2-3.92S2.6,1,3,.72h.13" fill="#fff"/><path d="M3.14.87h.59L3.65.68A1.26,1.26,0,0,0,3.4.2.47.47,0,0,0,3,.08H3v0a.79.79,0,0,0-.56.36,6.5,6.5,0,0,0-1,3.72v.07A10.06,10.06,0,0,0,2,7.39a5.1,5.1,0,0,0,.5,1.06c.18.26.34.45.59.46h0V8.76l0,.15h0V8.76l0,.15h0l.21-.11.1-.24.08-.23-.26-.16,0,0,.06.05-.05-.06h0l.06.05-.05-.06.1.11V8.15l-.1,0,.1.11v0l.11-.11-.11,0V8.3l.11-.11-.1.1h.15l0-.1-.1.1h.15v0l0-.1L3.3,8.09H3.25l0,.15,0-.15h0S3.08,8,3,7.81a8.62,8.62,0,0,1-.72-3.48V4.26A8.39,8.39,0,0,1,2.54,2,2.46,2.46,0,0,1,3.1.84L3,.72V.87h.13V.57H3l0,0a2.62,2.62,0,0,0-.67,1.29,8.67,8.67,0,0,0-.32,2.37v.07A10.62,10.62,0,0,0,2.31,7a4.51,4.51,0,0,0,.38,1c.15.24.3.44.55.45h.09l0-.09v.1h0l0-.09v0l-.11.06.11.07V8.27l-.11.06.09-.06H3.17l0,.06.09-.06H3.17v.07l0,.06.11,0,.11,0,.06-.07-.12-.09-.14-.07a2.35,2.35,0,0,0-.12.35l0,.07,0,0,0,0h0l0,0,0,0,0,.05V8.6h0l0,.05v.09l0-.15h0s-.18-.08-.33-.32a8.58,8.58,0,0,1-1-4V4.17a7.54,7.54,0,0,1,.49-2.74A3.24,3.24,0,0,1,2.71.63C2.85.45,3,.38,3,.39H3c.09,0,.1,0,.14,0a1,1,0,0,1,.18.36L3.5.73V.58H3.15V.87" fill="#3e3935"/><path d="M1.38.2,3,.23c-.54,0-1.36,1.75-1.37,4s.91,4.55,1.45,4.55L1.46,8.72C.92,8.72.17,6.63.15,4.38S.84.21,1.38.2" fill="#fff"/><path d="M1.38.2V.36L3,.38V.08a.79.79,0,0,0-.56.37,6.86,6.86,0,0,0-1,3.79v0A10,10,0,0,0,2,7.41,5.08,5.08,0,0,0,2.5,8.47c.18.26.34.45.58.46V8.79l0,.14h0V8.79l0,.14,0-.15V8.63L1.47,8.57h0s-.17-.07-.3-.29a8.54,8.54,0,0,1-.85-3.9V4.3A9.57,9.57,0,0,1,.71,1.47,3.56,3.56,0,0,1,1.09.62c.13-.2.25-.27.29-.26V.05a.73.73,0,0,0-.54.4A7.88,7.88,0,0,0,0,4.3v.08A10.69,10.69,0,0,0,.47,7.44a4.42,4.42,0,0,0,.44,1c.16.24.32.42.56.43h0v0l1.62.06,0-.3h0s-.18-.08-.33-.32a8.6,8.6,0,0,1-1-4.05v0a8.11,8.11,0,0,1,.47-2.79A3.29,3.29,0,0,1,2.69.63C2.82.45,3,.38,3,.38V.08L1.38.05h0V.2" fill="#3e3935"/><line x1="5.55" y1="7.29" x2="2.71" y2="7.28" fill="#fff"/><polyline points="5.55 7.21 2.71 7.21 2.71 7.36 5.55 7.37" fill="#3e3935"/><line x1="14.7" y1="8.34" x2="13.45" y2="8.33" fill="#fff"/><polyline points="14.7 8.26 13.45 8.26 13.45 8.41 14.7 8.41" fill="#3e3935"/><line x1="2.44" y1="8.2" x2="1.13" y2="8.2" fill="#fff"/><polyline points="2.44 8.13 1.13 8.13 1.13 8.28 2.44 8.28" fill="#3e3935"/><path d="M15.31.23c.8,0,1.47,1.89,1.5,4.24s-.59,4.27-1.39,4.28S14,6.86,13.92,4.51,14.51.24,15.31.23" fill="#fff"/><path d="M15.31.23V.46a.54.54,0,0,1,.39.25,7,7,0,0,1,.88,3.77v.17a9.22,9.22,0,0,1-.39,2.83,2.69,2.69,0,0,1-.4.81c-.14.18-.27.24-.37.24v0h0A.54.54,0,0,1,15,8.27a7,7,0,0,1-.88-3.77V4.34a9.23,9.23,0,0,1,.39-2.83,2.69,2.69,0,0,1,.4-.81.52.52,0,0,1,.37-.24h0V0a1,1,0,0,0-.72.41,7,7,0,0,0-.89,3.92v.18a10,10,0,0,0,.48,3.07,3.29,3.29,0,0,0,.51,1,1,1,0,0,0,.74.42h0a1,1,0,0,0,.72-.41A7,7,0,0,0,17,4.64V4.47a10,10,0,0,0-.47-3.07,3.29,3.29,0,0,0-.51-1A1,1,0,0,0,15.31,0h0V.23" fill="#3e3935"/><path d="M15.33.92c.38,0,.89,1.76.91,3.6s-.44,3.25-.82,3.26-.7-1.58-.73-3.42S15,.93,15.33.92" fill="#fff"/><path d="M15.33.92l0,.15,0-.14v.14h0l0-.14v.14h0a.79.79,0,0,1,.22.33,9,9,0,0,1,.54,3.11v.14a8.23,8.23,0,0,1-.27,2.18,2.61,2.61,0,0,1-.25.62l-.11.14,0,0v0h0a.61.61,0,0,1-.17-.29,10,10,0,0,1-.4-3V4.13A12.2,12.2,0,0,1,15,1.9a3,3,0,0,1,.19-.66l.09-.15,0,0h0l0-.15V.77a.34.34,0,0,0-.24.12,2.51,2.51,0,0,0-.4,1.19,13.25,13.25,0,0,0-.15,2.05v.23a13.19,13.19,0,0,0,.24,2.43,3.57,3.57,0,0,0,.24.78.88.88,0,0,0,.16.24.34.34,0,0,0,.25.12h0a.54.54,0,0,0,.41-.31,6.46,6.46,0,0,0,.56-3V4.52A10.87,10.87,0,0,0,16.07,2a4.15,4.15,0,0,0-.3-.84c-.11-.2-.21-.37-.43-.39h0l0,.15v0" fill="#3e3935"/><path d="M15.11,1.21a7.3,7.3,0,0,1,.5,3.13,7.38,7.38,0,0,1-.41,3.14" fill="#fff"/><path d="M15,1.3a3,3,0,0,1,.32,1.09,13.88,13.88,0,0,1,.15,2V4.6a13,13,0,0,1-.11,1.78,2.85,2.85,0,0,1-.28,1l.26.17a3.07,3.07,0,0,0,.32-1.13,13.35,13.35,0,0,0,.11-1.83V4.34a14.29,14.29,0,0,0-.15-2,3.19,3.19,0,0,0-.38-1.22L15,1.3" fill="#3e3935"/><path d="M14.88,2a11,11,0,0,1,.22,2.35,11.41,11.41,0,0,1-.17,2.38" fill="#fff"/><path d="M14.73,2a10.88,10.88,0,0,1,.21,2.32v.26a10.59,10.59,0,0,1-.17,2.08l.3.06a11,11,0,0,0,.18-2.14V4.35A11.12,11.12,0,0,0,15,2l-.3.07" fill="#3e3935"/><line x1="11.29" y1="8.73" x2="11.29" y2="9.68" fill="#fff"/><polyline points="11.06 8.73 11.06 9.68 11.52 9.68 11.52 8.73" fill="#3e3935"/><path d="M9.91,8.22c1.16.06.15-2.44.47-1.49.2.59.59,1,.69,1.3.2.66-.32.34-.66.27s-.66-.09-.5-.08" fill="#3e3935"/><path d="M11.35,8.05c-1.47-1-.57-2.24-1.81-3" fill="#fff"/><path d="M11.39,8a2.14,2.14,0,0,1-1-1.54A1.84,1.84,0,0,0,9.57,5l-.08.13a1.69,1.69,0,0,1,.78,1.34,2.3,2.3,0,0,0,1,1.63L11.39,8" fill="#3e3935"/><line x1="12.95" y1="7.39" x2="10.65" y2="7.38" fill="#fff"/><polyline points="12.96 7.32 10.65 7.31 10.65 7.46 12.95 7.47" fill="#3e3935"/><path d="M15.61,3.49c-.32-.81-.9,1.14-.9-.48,0-1,.42-2.06.63-2.06s.61.76.75,1.79-.4.95-.47.75" fill="#3e3935"/><path d="M6.94,11c.67,0-.4-.3,0-.39.19,0,.38-.59-.46-.52-.46,0-.88.16-1,.41s.71.5,1.38.5" fill="#3e3935"/></g></g></svg>